# xmcd
#
# Track frame offsets:
#        150
#        17537
#        47820
#        66947
#        87225
#        107595
#        125717
#        141485
#        165397
#        175630
#        197990
#
# Disc length: 2900 seconds
#
# Revision: 1
# Processed by: cddbd v1.5.1PL0 Copyright (c) Steve Scherf et al.
# Submitted via: ExactAudioCopy v0.95a5
#
DISCID=960b520b
DTITLE=Concrete Blonde - Walking In London
DYEAR=1992
DGENRE=Jazz
TTITLE0=Ghost Of A Texas Ladies' Man
TTITLE1=Walking In London
TTITLE2=Les Coeurs Jumeaux
TTITLE3=Woman To Woman
TTITLE4=Why Don't You See Me
TTITLE5=City Screaming
TTITLE6=Someday?
TTITLE7=I Wanna Be Your Friend Again
TTITLE8=Long Time Ago
TTITLE9=It's A Man's World
TTITLE10=The Ship Song
EXTD=YEAR: 1999 ID3G:   8
EXTT0=
EXTT1=
EXTT2=
EXTT3=
EXTT4=
EXTT5=
EXTT6=
EXTT7=
EXTT8=
EXTT9=
EXTT10=
PLAYORDER=
